<svg width="21" height="16" viewBox="0 0 21 16" fill="none" xmlns="http://www.w3.org/2000/svg">
<path opacity="0.2" d="M18.3443 3.83057V7.70557L13.4233 3.83057H18.3443Z" fill="white"/>
<path d="M18.3445 3.34619H13.4235C13.3018 3.34612 13.1828 3.37448 13.0815 3.4277C12.9803 3.48092 12.9013 3.5566 12.8547 3.64515C12.8082 3.73371 12.796 3.83116 12.8197 3.92517C12.8435 4.01918 12.9022 4.10552 12.9883 4.17326L15.0144 5.76807L10.963 8.95828L8.3226 6.8785C8.26547 6.83346 8.19763 6.79773 8.12296 6.77336C8.04828 6.74898 7.96824 6.73644 7.8874 6.73644C7.80657 6.73644 7.72652 6.74898 7.65185 6.77336C7.57717 6.79773 7.50933 6.83346 7.4522 6.8785L1.91611 11.2379C1.80068 11.3288 1.73584 11.452 1.73584 11.5806C1.73584 11.7091 1.80068 11.8324 1.91611 11.9233C2.03153 12.0142 2.18807 12.0652 2.3513 12.0652C2.51454 12.0652 2.67108 12.0142 2.7865 11.9233L7.8874 7.90598L10.5278 9.98576C10.5849 10.0308 10.6528 10.0665 10.7275 10.0909C10.8021 10.1153 10.8822 10.1278 10.963 10.1278C11.0439 10.1278 11.1239 10.1153 11.1986 10.0909C11.2732 10.0665 11.3411 10.0308 11.3982 9.98576L15.884 6.45285L17.9093 8.04826C17.9953 8.11608 18.105 8.16227 18.2243 8.18099C18.3437 8.19972 18.4675 8.19012 18.5799 8.15343C18.6924 8.11674 18.7885 8.05459 18.8561 7.97487C18.9237 7.89514 18.9597 7.80142 18.9596 7.70557V3.83057C18.9596 3.7021 18.8948 3.5789 18.7794 3.48806C18.6641 3.39722 18.5076 3.34619 18.3445 3.34619ZM17.7294 6.53641L14.9083 4.31494H17.7294V6.53641Z" fill="white"/>
</svg>
