<svg width="13" height="12" viewBox="0 0 13 12" fill="none" xmlns="http://www.w3.org/2000/svg">
<path d="M12.2363 2.41653L6.61133 0.54153C6.53907 0.517407 6.46093 0.517407 6.38867 0.54153L0.763672 2.41653C0.69372 2.43988 0.632884 2.48464 0.589771 2.54448C0.546658 2.60431 0.523453 2.67618 0.523438 2.74993V7.43743C0.523438 7.53067 0.560477 7.62009 0.626408 7.68602C0.692338 7.75195 0.78176 7.78899 0.875 7.78899C0.96824 7.78899 1.05766 7.75195 1.12359 7.68602C1.18952 7.62009 1.22656 7.53067 1.22656 7.43743V3.23743L3.49297 3.99329C3.20716 4.41567 3.01349 4.89349 2.92456 5.39566C2.83562 5.89783 2.85342 6.4131 2.97678 6.90794C3.10015 7.40279 3.32632 7.86611 3.64058 8.26776C3.95484 8.66942 4.35015 9.00041 4.80078 9.23919C3.67285 9.6218 2.69141 10.387 1.98828 11.4657C1.94786 11.5432 1.9377 11.6328 1.95978 11.7173C1.98186 11.8018 2.03459 11.8751 2.10771 11.9228C2.18082 11.9706 2.2691 11.9894 2.35533 11.9756C2.44157 11.9619 2.51959 11.9165 2.57422 11.8484C3.48066 10.4603 4.91094 9.66399 6.5 9.66399C8.08906 9.66399 9.51934 10.4603 10.4258 11.8484C10.4801 11.9179 10.5585 11.9646 10.6456 11.979C10.7327 11.9933 10.822 11.9745 10.8958 11.9261C10.9696 11.8776 11.0225 11.8033 11.0439 11.7177C11.0654 11.6321 11.0539 11.5415 11.0117 11.464C10.3086 10.387 9.32832 9.6218 8.19922 9.23743C8.64961 8.99839 9.04464 8.66721 9.35861 8.26543C9.67257 7.86366 9.89844 7.40029 10.0215 6.90548C10.1446 6.41066 10.1621 5.89547 10.073 5.39342C9.98385 4.89138 9.79002 4.41372 9.5041 3.99153L12.2363 3.08333C12.3062 3.05994 12.367 3.01516 12.4101 2.95533C12.4532 2.8955 12.4763 2.82365 12.4763 2.74993C12.4763 2.67621 12.4532 2.60435 12.4101 2.54452C12.367 2.48469 12.3062 2.43992 12.2363 2.41653ZM9.42969 6.03118C9.42989 6.49801 9.31854 6.95814 9.1049 7.37322C8.89125 7.7883 8.58151 8.14631 8.20148 8.41744C7.82144 8.68856 7.38212 8.86494 6.92011 8.93188C6.4581 8.99883 5.98679 8.95439 5.54543 8.80229C5.10407 8.65018 4.70545 8.3948 4.38278 8.05743C4.06011 7.72006 3.82274 7.31047 3.69043 6.86277C3.55813 6.41508 3.53472 5.94225 3.62217 5.48368C3.70962 5.02511 3.90539 4.59408 4.19316 4.22649L6.38867 4.95833C6.46093 4.98245 6.53907 4.98245 6.61133 4.95833L8.80684 4.22649C9.21102 4.74115 9.4304 5.37678 9.42969 6.03118ZM6.5 4.25462L1.98828 2.74993L6.5 1.24524L11.0117 2.74993L6.5 4.25462Z" fill="white"/>
</svg>

