<svg width="19" height="18" viewBox="0 0 19 18" fill="none" xmlns="http://www.w3.org/2000/svg">
<path d="M9.125 6.75C8.09 6.75 7.25 7.59 7.25 8.625C7.25 9.66 8.09 10.5 9.125 10.5C10.16 10.5 11 9.66 11 8.625C11 7.59 10.16 6.75 9.125 6.75ZM15.5 3H3.5C2.675 3 2 3.675 2 4.5V13.5C2 14.325 2.675 15 3.5 15H15.5C16.325 15 17 14.325 17 13.5V4.5C17 3.675 16.325 3 15.5 3ZM13.0925 13.6575L10.91 11.475C10.3925 11.805 9.7775 12 9.1175 12C7.2575 12 5.75 10.4925 5.75 8.625C5.75 6.7575 7.2575 5.25 9.125 5.25C10.9925 5.25 12.5 6.7575 12.5 8.625C12.5 9.285 12.305 9.8925 11.975 10.4175L14.1575 12.5925L13.0925 13.6575Z" fill="#213458"/>
</svg>
